<?xml version="1.0" encoding="UTF-8" standalone="no"?>
<!-- Generator: Adobe Illustrator 24.0.3, SVG Export Plug-In . SVG Version: 6.00 Build 0)  -->

<svg
   xmlns:dc="http://purl.org/dc/elements/1.1/"
   xmlns:cc="http://creativecommons.org/ns#"
   xmlns:rdf="http://www.w3.org/1999/02/22-rdf-syntax-ns#"
   xmlns:svg="http://www.w3.org/2000/svg"
   xmlns="http://www.w3.org/2000/svg"
   xmlns:sodipodi="http://sodipodi.sourceforge.net/DTD/sodipodi-0.dtd"
   xmlns:inkscape="http://www.inkscape.org/namespaces/inkscape"
   version="1.1"
   id="Layer_1"
   viewBox="0 0 138.69999 100"
   xml:space="preserve"
   sodipodi:docname="semanticscholar-logo.svg"
   width="138.7"
   height="100"
   inkscape:version="0.92.5 (2060ec1f9f, 2020-04-08)"><metadata
   id="metadata53"><rdf:RDF><cc:Work
       rdf:about=""><dc:format>image/svg+xml</dc:format><dc:type
         rdf:resource="http://purl.org/dc/dcmitype/StillImage" /><dc:title>Semantic Scholar</dc:title></cc:Work></rdf:RDF></metadata><defs
   id="defs51" /><sodipodi:namedview
   pagecolor="#ffffff"
   bordercolor="#666666"
   borderopacity="1"
   objecttolerance="10"
   gridtolerance="10"
   guidetolerance="10"
   inkscape:pageopacity="0"
   inkscape:pageshadow="2"
   inkscape:window-width="1920"
   inkscape:window-height="1043"
   id="namedview49"
   showgrid="false"
   inkscape:zoom="0.62839549"
   inkscape:cx="-11.139482"
   inkscape:cy="50"
   inkscape:window-x="1920"
   inkscape:window-y="0"
   inkscape:window-maximized="1"
   inkscape:current-layer="Layer_1" />
<style
   type="text/css"
   id="style2">
	.logo__wordmark {fill: #FFFFFF;}
	.logo__checkmark {fill: #F3D25F;}
	.logo__paper-one {fill: #1F3C73;}
	.logo__paper-two {fill: #2C5BA8;}
	.logo__paper-three {fill: #638BC8;}
</style>
<title
   id="logoTitle">Semantic Scholar</title>
<desc
   id="logoDesc">Semantic Scholar's Logo</desc>

	<g
   class="logo__mark"
   id="g46">
    <path
   class="logo__checkmark"
   d="m 138.7,30.4 c -4.9,3.1 -8.3,4.8 -12.4,7.2 -24,14.5 -47.1,30.6 -65,51.9 L 52.7,100 26.3,58 c 5.9,4.7 20.6,17.9 26.6,20.8 L 72.3,64.2 C 85.8,54.7 124,34 138.7,30.4 Z"
   id="path38"
   inkscape:connector-curvature="0"
   style="fill:#f3d25f" />
    <path
   class="logo__paper-one"
   d="m 46.5,68.5 c 2,1.6 4,3.1 5.6,4.3 C 56.5,51.6 52.8,28.8 41.2,9 60.7,8.7 80.1,8.5 99.6,8.2 c 4.4,9.7 6.9,20 7.5,30.6 1.7,-0.9 3.4,-1.7 5.1,-2.5 C 111.6,25.5 108.5,13.7 102.6,0.1 76,0 49.5,0 22.9,0 40.2,20.5 48.1,45.3 46.5,68.5 Z"
   id="path40"
   inkscape:connector-curvature="0"
   style="fill:#1f3c73" />
    <path
   class="logo__paper-two"
   d="M 42.9,65.7 C 43.4,66.2 44,66.6 44.5,67 43.7,47.3 36.3,27.2 22.4,9.9 c -4.1,0 -8.3,0 -12.4,0 17.9,16.5 28.8,36.4 32.9,55.8 z"
   id="path42"
   inkscape:connector-curvature="0"
   style="fill:#2c5ba8" />
    <path
   class="logo__paper-three"
   d="m 38.6,61.9 c 0.6,0.5 1.2,1 1.9,1.6 -5.2,-14.6 -14.4,-29 -27.4,-41.6 -4.4,0 -8.7,0 -13.1,0 16.7,12 29.6,25.9 38.6,40 z"
   id="path44"
   inkscape:connector-curvature="0"
   style="fill:#638bc8" />
  </g>
</svg>